solid Large_x1(Clone)
facet normal 0 0 -1
outer loop
	vertex 40 40 0
	vertex 40 -40 0
	vertex -40 -40 0
endloop
endfacet
facet normal 0 0 -1
outer loop
	vertex 40 40 0
	vertex -40 -40 0
	vertex -40 40 0
endloop
endfacet
facet normal 0 0 1
outer loop
	vertex -40 40 8
	vertex -40 -40 8
	vertex 40 -40 8
endloop
endfacet
facet normal 0 0 1
outer loop
	vertex -40 40 8
	vertex 40 -40 8
	vertex 40 40 8
endloop
endfacet
facet normal 0 1 0
outer loop
	vertex -40 40 8
	vertex 40 40 8
	vertex 40 40 0
endloop
endfacet
facet normal 0 1 0
outer loop
	vertex -40 40 8
	vertex 40 40 0
	vertex -40 40 0
endloop
endfacet
facet normal -1 0 0
outer loop
	vertex -40 -40 8
	vertex -40 40 8
	vertex -40 40 0
endloop
endfacet
facet normal -1 0 0
outer loop
	vertex -40 -40 8
	vertex -40 40 0
	vertex -40 -40 0
endloop
endfacet
facet normal 0 -1 0
outer loop
	vertex 40 -40 8
	vertex -40 -40 8
	vertex -40 -40 0
endloop
endfacet
facet normal 0 -1 0
outer loop
	vertex 40 -40 8
	vertex -40 -40 0
	vertex 40 -40 0
endloop
endfacet
facet normal 1 0 0
outer loop
	vertex 40 40 8
	vertex 40 -40 8
	vertex 40 -40 0
endloop
endfacet
facet normal 1 0 0
outer loop
	vertex 40 40 8
	vertex 40 -40 0
	vertex 40 40 0
endloop
endfacet
endsolid Large_x1(Clone)
